<svg xmlns="http://www.w3.org/2000/svg" version="1.1" width="45" height="45">
  <g fill="none" fill-rule="evenodd" stroke="#000" stroke-width="1.5" stroke-linecap="round" stroke-linejoin="round">
    <path d="M22 10c10.5 1 16.5 8 16 29H15c0-9 10-6.5 8-21" fill="#000"/>
    <path d="M24 18c.38 5.12-1.7 6.23-3 10-1.5 4.5-.55 6.15-1 10" fill="#000"/>
    <path d="M9.5 25.5a.5.5 0 1 1-1 0 .5.5 0 1 1 1 0z" fill="#fff" stroke="#fff"/>
    <path d="M14.933 15.75a5 5.16 31.3 1 1-.866-.5 5 5.16 31.3 1 1 .866.5z" fill="#fff" stroke="#fff"/>
    <path d="M15 15.5c.413 1.4-5.335 7.448-7 21" fill="none" stroke="#c8a96e"/>
    <path d="M15 15.5c-4 2 6.0 13 6 21" fill="none" stroke="#c8a96e"/>
    <path d="M9 39h26" stroke="#c8a96e"/>
  </g>
</svg>