<?xml version="1.0" standalone="no"?><!DOCTYPE svg PUBLIC "-//W3C//DTD SVG 1.1//EN" "http://www.w3.org/Graphics/SVG/1.1/DTD/svg11.dtd"><svg t="1667267636035" class="icon" viewBox="0 0 1024 1024" version="1.1" xmlns="http://www.w3.org/2000/svg" p-id="2333" xmlns:xlink="http://www.w3.org/1999/xlink" width="200" height="200"><path d="M304.738028 552.315194" fill="#515151" p-id="2334"></path><path d="M729.544153 384.846018" fill="#515151" p-id="2335"></path><path d="M595.52788 258.276345" fill="#515151" p-id="2336"></path><path d="M631.156332 221.153866l-95.67913 0 0-47.839565c0-26.314319-21.535479-47.839565-47.839565-47.839565l-95.67913 0c-26.302039 0-47.839565 21.525246-47.839565 47.839565l0 47.839565-95.67913 0 0 108.98211 382.715495 0L631.155309 221.153866zM487.638661 221.153866l-95.67913 0 0-47.746444c0.023536-0.023536 0.047072-0.046049 0.094144-0.093121l95.515401 0c0.023536 0.023536 0.069585 0.047072 0.094144 0.093121L487.638661 221.153866zM726.835462 406.883941L726.835462 245.073648c0-13.151531-10.766205-23.919782-23.919782-23.919782l-47.839565 0 0 47.839565 23.919782 0 0 137.89051-273.990235 0 0 371.715977L200.601272 778.599917l0-509.606487 23.919782 0 0-47.839565-47.839565 0c-13.151531 0-23.919782 10.768251-23.919782 23.919782l0 557.446052c0 13.151531 10.768251 23.919782 23.919782 23.919782l228.324172 0 0 64.46829 326.178851 0 139.169643-132.0065 0-352.017332L726.835462 406.883941zM731.951993 823.26007l0-62.568011 70.75446 0L731.951993 823.26007zM822.514591 712.852494l-138.402163 0 0 130.215714-231.267201 0 0-388.344702 369.669364 0L822.514591 712.852494z" fill="#515151" p-id="2337"></path><path d="M515.266905 557.309952l245.593488 0 0 48.095391-245.593488 0 0-48.095391Z" fill="#515151" p-id="2338"></path><path d="M515.266905 692.38637l124.528178 0 0 48.095391-124.528178 0 0-48.095391Z" fill="#515151" p-id="2339"></path></svg>