<?xml version="1.0" standalone="no"?><!DOCTYPE svg PUBLIC "-//W3C//DTD SVG 1.1//EN" "http://www.w3.org/Graphics/SVG/1.1/DTD/svg11.dtd"><svg t="1667267721481" class="icon" viewBox="0 0 1024 1024" version="1.1" xmlns="http://www.w3.org/2000/svg" p-id="3049" xmlns:xlink="http://www.w3.org/1999/xlink" width="200" height="200"><path d="M213.333333 554.666667H128v-85.333334h85.333333v85.333334z m632.661334-384a42.666667 42.666667 0 0 1-18.218667 34.986666l-291.328 203.904a42.666667 42.666667 0 0 1-48.896 0l-291.328-203.946666A42.666667 42.666667 0 0 1 220.672 128h582.656a42.666667 42.666667 0 0 1 42.666667 42.666667z m0 682.666666a42.666667 42.666667 0 0 1-37.717334 42.368l-4.949333 0.298667H220.672a42.666667 42.666667 0 0 1-28.629333-74.24l4.181333-3.413333 291.328-203.904a42.666667 42.666667 0 0 1 43.861333-3.029334l5.034667 3.029334 291.328 203.946666a42.666667 42.666667 0 0 1 18.218667 34.944zM384 554.666667H298.666667v-85.333334h85.333333v85.333334z m320.896-358.4H307.2L512 335.957333l192.896-139.605333zM554.666667 554.666667h-85.333334v-85.333334h85.333334v85.333334z m170.666666 0h-85.333333v-85.333334h85.333333v85.333334z m170.666667 0h-85.333333v-85.333334h85.333333v85.333334z" fill="#515151" p-id="3050"></path></svg>