<svg xmlns="http://www.w3.org/2000/svg" version="1.1" width="45" height="45">
  <g fill-rule="evenodd" stroke="#000" stroke-width="1.5" stroke-linecap="round" stroke-linejoin="round">
    <g fill="#000" stroke-linecap="butt">
      <path d="M9 36c3.39-.97 10.11.43 13.5-2 3.39 2.43 10.11 1.03 13.5 2 0 0 1.5.5 1.5 1.5v1H8v-1c0-1 1.5-1.5 1.5-1.5z"/>
      <path d="M15 32c2.5 2.5 12.5 2.5 15 0 .5-1.5 0-2 0-2 0-2.5-2.5-4-2.5-4 5.5-1.5 6-11.5-5-15.5-11 4-10.5 14-5 15.5 0 0-2.5 1.5-2.5 4 0 0-.5.5 0 2z"/>
      <path d="M25 8a2.5 2.5 0 1 1-5 0 2.5 2.5 0 1 1 5 0z"/>
    </g>
    <path d="M17.5 26h10M15 30h15M22.5 15.5v5M20 18h5" stroke="#c8a96e" stroke-linejoin="miter"/>
  </g>
</svg>