<svg xmlns="http://www.w3.org/2000/svg" version="1.1" width="45" height="45">
  <g fill-rule="evenodd" stroke="#000" stroke-width="1.5" stroke-linecap="round" stroke-linejoin="round">
    <g stroke="none">
      <circle cx="6" cy="12" r="2.75" fill="#000"/>
      <circle cx="14" cy="9" r="2.75" fill="#000"/>
      <circle cx="22.5" cy="8" r="2.75" fill="#000"/>
      <circle cx="31" cy="9" r="2.75" fill="#000"/>
      <circle cx="39" cy="12" r="2.75" fill="#000"/>
    </g>
    <path d="M9 26c8.5-8.5 21.5-8.5 27 0l2.5-12.5L31 25l-.3-14.1-5.2 13.6-3-14.5-3 14.5-5.2-13.6L14 25 6.5 13.5 9 26z" stroke-linecap="butt" fill="#000"/>
    <path d="M9 26c0 2 1.5 2 2.5 4 1 1.5 1 1 .5 3.5-1.5 1-1 2.5-1 2.5-1.5 1.5.5 2.5.5 2.5 6.5 1 16.5 1 23 0 0 0 1.5-1 0-2.5 0 0 .5-1.5-1-2.5-.5-2.5-.5-2 .5-3.5 1-2 2.5-2 2.5-4-8.5 7.5-21.5 7.5-27 0z" fill="#000"/>
    <path fill="none" d="M11 38.5c5.5 3.5 15.5 3.5 23 0M11 29a14 14 0 0 1 23 0M12.5 31.5h20M11.5 34.5h22" stroke="#c8a96e"/>
  </g>
</svg>