<svg xmlns="http://www.w3.org/2000/svg" version="1.1" width="45" height="45">
  <g fill-rule="evenodd" stroke="#000" stroke-width="1.5" stroke-linecap="round" stroke-linejoin="round">
    <path d="M9 39h27v-3H9v3zM12.5 32l1.5-2.5h17l1.5 2.5h-20zM12 36v-4h21v4H12z" fill="#000" stroke-linecap="butt"/>
    <path d="M14 29.5v-13h17v13H14z" fill="#000" stroke-linecap="butt" stroke-linejoin="miter"/>
    <path d="M11 14V9h4v2h5V9h5v2h5V9h4v5H11z" fill="#000" stroke-linecap="butt"/>
    <path d="M34 14l-3 3H14l-3-3"/>
    <path fill="none" stroke="#c8a96e" d="M15.5 11.5v13M20.5 11.5v13M24.5 11.5v13M29.5 11.5v13"/>
  </g>
</svg>